<svg xmlns="http://www.w3.org/2000/svg" width="250" height="72" viewBox="0 0 250 72"><g fill="#2C5CA7" fill-rule="evenodd"><path d="M91.205 10.848l2.666 11.539.574 3.213.588-3.145 2.27-11.607h4.443l2.393 11.539.615 3.213.615-3.09 2.693-11.662h4.279l-5.674 20.152h-4.02l-2.434-11.785-.711-3.896-.711 3.896-2.434 11.785h-3.91l-5.715-20.152h4.471zm31.582 12.906c-.246.155-.494.28-.745.376-.251.096-.595.185-1.032.267l-.875.164c-.82.146-1.408.324-1.764.533-.602.355-.902.907-.902 1.654 0 .665.185 1.146.554 1.442.369.296.818.444 1.347.444.839 0 1.611-.246 2.317-.738.706-.492 1.073-1.39 1.101-2.693v-1.449zm-2.365-1.818c.72-.091 1.235-.205 1.545-.342.556-.237.834-.606.834-1.107 0-.611-.212-1.032-.636-1.265-.424-.232-1.046-.349-1.866-.349-.921 0-1.572.228-1.955.684-.273.337-.456.793-.547 1.367h-3.76c.082-1.303.447-2.374 1.094-3.213 1.03-1.313 2.798-1.969 5.305-1.969 1.632 0 3.081.324 4.348.971s1.9 1.868 1.9 3.664v6.836c0 .474.009 1.048.027 1.723.027.51.105.857.232 1.039.128.182.319.333.574.451v.574h-4.238c-.118-.301-.201-.583-.246-.848-.046-.264-.082-.565-.109-.902-.538.583-1.158 1.08-1.859 1.49-.839.483-1.786.725-2.844.725-1.349 0-2.463-.385-3.343-1.155-.88-.77-1.319-1.862-1.319-3.274 0-1.832.706-3.158 2.119-3.979.775-.447 1.914-.766 3.418-.957l1.326-.164zm8.189-2.926v-2.775h2.078v-4.156h3.855v4.156h2.42v2.775h-2.42v7.875c0 .611.077.991.232 1.142.155.15.629.226 1.422.226l.376-.007.39-.021v2.912l-1.846.068c-1.841.064-3.099-.255-3.773-.957-.438-.447-.656-1.135-.656-2.064v-9.174h-2.078zm14.636.752c-.497.565-.809 1.331-.937 2.297h6.057c-.064-1.03-.376-1.812-.937-2.345-.561-.533-1.256-.8-2.085-.8-.902 0-1.602.283-2.099.848zm5.448-3.363c.993.465 1.814 1.199 2.461 2.201.583.884.962 1.909 1.135 3.076.1.684.141 1.668.123 2.953h-10.199c.055 1.495.524 2.543 1.408 3.145.538.374 1.185.561 1.941.561.802 0 1.454-.228 1.955-.684.273-.246.515-.588.725-1.025h3.979c-.1.884-.561 1.782-1.381 2.693-1.276 1.449-3.062 2.174-5.359 2.174-1.896 0-3.568-.611-5.018-1.832-1.449-1.221-2.174-3.208-2.174-5.961 0-2.579.654-4.557 1.962-5.934 1.308-1.376 3.006-2.064 5.093-2.064 1.24 0 2.356.232 3.35.697zm14.622-.649l.335.021v3.992c-.246-.027-.465-.046-.656-.055l-.465-.014c-1.568 0-2.62.51-3.158 1.531-.301.574-.451 1.458-.451 2.652v7.123h-3.924v-14.902h3.719v2.598c.602-.993 1.126-1.673 1.572-2.037.729-.611 1.677-.916 2.844-.916l.185.007zm15.271 2.14c1.107 1.413 1.661 3.236 1.661 5.469 0 2.315-.547 4.234-1.641 5.756-1.094 1.522-2.62 2.283-4.58 2.283-1.23 0-2.219-.246-2.967-.738-.447-.292-.93-.802-1.449-1.531v1.873h-3.814v-20.125h3.883v7.164c.492-.693 1.035-1.221 1.627-1.586.702-.456 1.595-.684 2.68-.684 1.96 0 3.493.706 4.601 2.119zm-3.261 9.078c.556-.811.834-1.878.834-3.199 0-1.057-.137-1.932-.41-2.625-.52-1.313-1.477-1.969-2.871-1.969-1.413 0-2.383.643-2.912 1.928-.273.684-.41 1.568-.41 2.652 0 1.276.283 2.333.848 3.172s1.426 1.258 2.584 1.258c1.003 0 1.782-.406 2.338-1.217zm11.491-7.205c-.497.565-.809 1.331-.937 2.297h6.057c-.064-1.03-.376-1.812-.937-2.345-.561-.533-1.256-.8-2.085-.8-.902 0-1.602.283-2.099.848zm5.448-3.363c.993.465 1.814 1.199 2.461 2.201.583.884.962 1.909 1.135 3.076.1.684.141 1.668.123 2.953h-10.199c.055 1.495.524 2.543 1.408 3.145.538.374 1.185.561 1.941.561.802 0 1.454-.228 1.955-.684.273-.246.515-.588.725-1.025h3.979c-.1.884-.561 1.782-1.381 2.693-1.276 1.449-3.062 2.174-5.359 2.174-1.896 0-3.568-.611-5.018-1.832-1.449-1.221-2.174-3.208-2.174-5.961 0-2.579.654-4.557 1.962-5.934 1.308-1.376 3.006-2.064 5.093-2.064 1.24 0 2.356.232 3.35.697zm14.246-.062c.702.396 1.271.946 1.709 1.647v-7.109h3.951v20.125h-3.787v-2.064c-.556.884-1.189 1.527-1.9 1.928-.711.401-1.595.602-2.652.602-1.741 0-3.206-.704-4.396-2.112-1.189-1.408-1.784-3.215-1.784-5.421 0-2.543.586-4.544 1.757-6.002 1.171-1.458 2.737-2.188 4.696-2.188.902 0 1.704.198 2.406.595zm.957 10.616c.574-.82.861-1.882.861-3.186 0-1.823-.46-3.126-1.381-3.91-.565-.474-1.221-.711-1.969-.711-1.139 0-1.976.431-2.509 1.292-.533.861-.8 1.93-.8 3.206 0 1.376.271 2.477.813 3.302.542.825 1.365 1.237 2.468 1.237s1.941-.41 2.516-1.23zm16.522-11.204l.335.021v3.992c-.246-.027-.465-.046-.656-.055l-.465-.014c-1.568 0-2.62.51-3.158 1.531-.301.574-.451 1.458-.451 2.652v7.123h-3.924v-14.902h3.719v2.598c.602-.993 1.126-1.673 1.572-2.037.729-.611 1.677-.916 2.844-.916l.185.007zm6.624-1.429h-3.951v-3.596h3.951v3.596zm-3.951 1.777h3.951v14.902h-3.951v-14.902zm11.799-1.777h-3.896v-3.596h3.896v3.596zm-5.77 19.537l.465.034.246.007c.383 0 .672-.093.868-.28.196-.187.294-.549.294-1.087v-16.365h3.896v16.434c0 1.504-.296 2.616-.889 3.336-.592.72-1.755 1.08-3.486 1.08l-.526-.014-.868-.027v-3.117zm15.641-23.194l.82.062v3.172c-.219-.027-.586-.048-1.101-.062-.515-.014-.87.1-1.066.342-.196.242-.294.508-.294.8v1.258h2.557v2.748h-2.557v12.018h-3.883v-12.018h-2.174v-2.748h2.133v-.957c0-1.595.269-2.693.807-3.295.565-.893 1.928-1.34 4.088-1.34.246 0 .469.007.67.021zm-135.427 36.474c-.319-1.376-1.098-2.338-2.338-2.885-.693-.301-1.463-.451-2.311-.451-1.622 0-2.955.613-3.999 1.839s-1.565 3.069-1.565 5.53c0 2.479.565 4.234 1.695 5.264 1.13 1.03 2.415 1.545 3.855 1.545 1.413 0 2.57-.408 3.473-1.224.902-.816 1.458-1.884 1.668-3.206h-4.662v-3.363h8.395v10.814h-2.789l-.424-2.516c-.811.957-1.54 1.632-2.188 2.023-1.112.684-2.479 1.025-4.102 1.025-2.671 0-4.858-.925-6.563-2.775-1.777-1.859-2.666-4.402-2.666-7.629 0-3.263.898-5.879 2.693-7.848 1.796-1.969 4.17-2.953 7.123-2.953 2.561 0 4.619.649 6.173 1.948 1.554 1.299 2.445 2.919 2.673 4.86h-4.143zm16.194-1.388l.335.021v3.992c-.246-.027-.465-.046-.656-.055l-.465-.014c-1.568 0-2.62.51-3.158 1.531-.301.574-.451 1.458-.451 2.652v7.123h-3.924v-14.902h3.719v2.598c.602-.993 1.126-1.673 1.572-2.037.729-.611 1.677-.916 2.844-.916l.185.007zm11.929 11.286c.611-.811.916-1.964.916-3.459s-.305-2.646-.916-3.452c-.611-.807-1.486-1.21-2.625-1.21s-2.017.403-2.632 1.21c-.615.807-.923 1.957-.923 3.452 0 1.495.308 2.648.923 3.459.615.811 1.493 1.217 2.632 1.217s2.014-.406 2.625-1.217zm3.117 2.153c-1.258 1.554-3.167 2.331-5.729 2.331-2.561 0-4.471-.777-5.729-2.331-1.258-1.554-1.887-3.425-1.887-5.612 0-2.151.629-4.015 1.887-5.592s3.167-2.365 5.729-2.365c2.561 0 4.471.788 5.729 2.365 1.258 1.577 1.887 3.441 1.887 5.592 0 2.188-.629 4.058-1.887 5.612zm16.714-12.236c.98.807 1.47 2.144 1.47 4.013v10.035h-3.992v-9.064c0-.784-.105-1.385-.314-1.805-.383-.766-1.112-1.148-2.188-1.148-1.322 0-2.229.561-2.721 1.682-.255.592-.383 1.349-.383 2.27v8.066h-3.883v-14.875h3.76v2.174c.501-.766.975-1.317 1.422-1.654.802-.602 1.818-.902 3.049-.902 1.54 0 2.8.403 3.78 1.21zm9.071-2.632h-3.951v-3.596h3.951v3.596zm-3.951 1.777h3.951v14.902h-3.951v-14.902zm19.763.854c.98.807 1.47 2.144 1.47 4.013v10.035h-3.992v-9.064c0-.784-.105-1.385-.314-1.805-.383-.766-1.112-1.148-2.188-1.148-1.322 0-2.229.561-2.721 1.682-.255.592-.383 1.349-.383 2.27v8.066h-3.883v-14.875h3.76v2.174c.501-.766.975-1.317 1.422-1.654.802-.602 1.818-.902 3.049-.902 1.54 0 2.8.403 3.78 1.21zm13.774 9.816c.629-.688.943-1.784.943-3.288 0-1.413-.298-2.488-.896-3.227-.597-.738-1.397-1.107-2.399-1.107-1.367 0-2.311.643-2.83 1.928-.273.684-.41 1.527-.41 2.529 0 .866.146 1.636.438 2.311.529 1.258 1.477 1.887 2.844 1.887.911 0 1.682-.344 2.311-1.032zm-1.326-10.685c.948.392 1.714 1.112 2.297 2.16v-2.146h3.787v14.137c0 1.923-.324 3.372-.971 4.348-1.112 1.677-3.245 2.516-6.398 2.516-1.905 0-3.459-.374-4.662-1.121-1.203-.747-1.868-1.864-1.996-3.35h4.238c.109.456.287.784.533.984.419.355 1.126.533 2.119.533 1.404 0 2.342-.469 2.816-1.408.31-.602.465-1.613.465-3.035v-.957c-.374.638-.775 1.117-1.203 1.436-.775.592-1.782.889-3.021.889-1.914 0-3.443-.672-4.587-2.017-1.144-1.344-1.716-3.165-1.716-5.462 0-2.215.551-4.076 1.654-5.585 1.103-1.508 2.666-2.263 4.689-2.263.747 0 1.399.114 1.955.342zm13.501 3.678c-.497.565-.809 1.331-.937 2.297h6.057c-.064-1.03-.376-1.812-.937-2.345-.561-.533-1.256-.8-2.085-.8-.902 0-1.602.283-2.099.848zm5.448-3.363c.993.465 1.814 1.199 2.461 2.201.583.884.962 1.909 1.135 3.076.1.684.141 1.668.123 2.953h-10.199c.055 1.495.524 2.543 1.408 3.145.538.374 1.185.561 1.941.561.802 0 1.454-.228 1.955-.684.273-.246.515-.588.725-1.025h3.979c-.1.884-.561 1.782-1.381 2.693-1.276 1.449-3.062 2.174-5.359 2.174-1.896 0-3.568-.611-5.018-1.832-1.449-1.221-2.174-3.208-2.174-5.961 0-2.579.654-4.557 1.962-5.934 1.308-1.376 3.006-2.064 5.093-2.064 1.24 0 2.356.232 3.35.697zm18.382.554c.98.807 1.47 2.144 1.47 4.013v10.035h-3.992v-9.064c0-.784-.105-1.385-.314-1.805-.383-.766-1.112-1.148-2.188-1.148-1.322 0-2.229.561-2.721 1.682-.255.592-.383 1.349-.383 2.27v8.066h-3.883v-14.875h3.76v2.174c.501-.766.975-1.317 1.422-1.654.802-.602 1.818-.902 3.049-.902 1.54 0 2.8.403 3.78 1.21z"/><ellipse cx="63.79" cy="16.313" rx="1" ry="1"/><ellipse cx="30.484" cy="27.563" rx="1" ry="1"/><ellipse cx="34.435" cy="57.938" rx="1" ry="1"/><ellipse cx="69.153" cy="45.844" rx="1" ry="1"/><ellipse cx="59.556" cy="12.094" rx="1" ry="1"/><ellipse cx="36.129" cy="24.75" rx="1.129" ry="1.125"/><ellipse cx="39.516" cy="59.625" rx="1.129" ry="1.125"/><ellipse cx="66.613" cy="52.875" rx="1.129" ry="1.125"/><ellipse cx="56.169" cy="59.344" rx="1" ry="1"/><ellipse cx="53.065" cy="7.875" rx="1.129" ry="1.125"/><ellipse cx="47.702" cy="5.906" rx="1.411" ry="1.406"/><ellipse cx="49.96" cy="62.156" rx="1.411" ry="1.406"/><ellipse cx="39.798" cy="4.781" rx="1.411" ry="1.406"/><ellipse cx="42.056" cy="23.906" rx="1.411" ry="1.406"/><ellipse cx="33.306" cy="5.063" rx="1.694" ry="1.688"/><ellipse cx="47.984" cy="25.313" rx="1.694" ry="1.688"/><ellipse cx="43.468" cy="63.563" rx="1.694" ry="1.688"/><ellipse cx="45.726" cy="59.063" rx="1.694" ry="1.688"/><ellipse cx="62.097" cy="59.063" rx="1.694" ry="1.688"/><ellipse cx="26.815" cy="7.594" rx="1.976" ry="1.969"/><ellipse cx="52.782" cy="28.969" rx="1.976" ry="1.969"/><ellipse cx="51.653" cy="55.969" rx="1.976" ry="1.969"/><ellipse cx="55.04" cy="63.844" rx="1.976" ry="1.969"/><ellipse cx="36.411" cy="63.844" rx="1.976" ry="1.969"/><ellipse cx="21.452" cy="11.25" rx="2.258" ry="2.25"/><ellipse cx="9.597" cy="15.188" rx="1.694" ry="1.688"/><ellipse cx="14.96" cy="9.281" rx="1.411" ry="1.406"/><ellipse cx="22.581" cy="4.5" rx="1.129" ry="1.125"/><ellipse cx="29.637" cy="1.969" rx="1" ry="1"/><ellipse cx="36.976" cy=".844" rx="1" ry="1"/><ellipse cx="45.161" cy="2.25" rx="1" ry="1"/><ellipse cx="57.581" cy="33.75" rx="2.258" ry="2.25"/><ellipse cx="29.355" cy="61.875" rx="2.258" ry="2.25"/><ellipse cx="48.548" cy="67.5" rx="2.258" ry="2.25"/><ellipse cx="15.806" cy="16.875" rx="2.258" ry="2.25"/><ellipse cx="5.645" cy="21.375" rx="2.258" ry="2.25"/><ellipse cx="58.71" cy="39.375" rx="2.258" ry="2.25"/><ellipse cx="58.71" cy="46.125" rx="2.258" ry="2.25"/><ellipse cx="55.323" cy="51.75" rx="2.258" ry="2.25"/><ellipse cx="23.71" cy="58.5" rx="2.258" ry="2.25"/><ellipse cx="40.645" cy="69.188" rx="2.258" ry="2.25"/><ellipse cx="12.702" cy="22.781" rx="2.54" ry="2.531"/><ellipse cx="10.726" cy="28.688" rx="2.823" ry="2.813"/><ellipse cx="10.726" cy="36.563" rx="2.823" ry="2.813"/><ellipse cx="33.306" cy="69.188" rx="2.823" ry="2.813"/><ellipse cx="24.556" cy="67.219" rx="3.105" ry="3.094"/><ellipse cx="17.782" cy="63.844" rx="3.105" ry="3.094"/><ellipse cx="12.137" cy="58.219" rx="3.105" ry="3.094"/><ellipse cx="7.621" cy="52.594" rx="3.105" ry="3.094"/><ellipse cx="4.234" cy="44.719" rx="3.105" ry="3.094"/><ellipse cx="2.823" cy="36.563" rx="2.823" ry="2.813"/><ellipse cx="3.105" cy="28.969" rx="2.54" ry="2.531"/><ellipse cx="11.573" cy="43.031" rx="2.54" ry="2.531"/><ellipse cx="14.395" cy="49.219" rx="2.54" ry="2.531"/><ellipse cx="18.347" cy="54.844" rx="2.54" ry="2.531"/></g></svg>